<svg width="40" height="40" viewBox="0 0 40 40" fill="none" xmlns="http://www.w3.org/2000/svg">
<g id="Frame" clip-path="url(#clip0_6_690)">
<path id="Vector" d="M20.004 39.5352C17.3673 39.5352 14.8087 39.0195 12.3986 38C10.0704 37.0156 7.98059 35.6055 6.18762 33.8125C4.39465 32.0195 2.9845 29.9297 2.00012 27.6016C0.980591 25.1953 0.464966 22.6328 0.464966 19.9961C0.464966 17.3594 0.980591 14.8008 2.00012 12.3906C2.9845 10.0625 4.39465 7.97266 6.18762 6.17969C7.98059 4.38672 10.0704 2.97656 12.3986 1.99219C14.8087 0.972656 17.3673 0.457031 20.004 0.457031C22.6407 0.457031 25.1993 0.972656 27.6095 1.99219C29.9376 2.97656 32.0275 4.38672 33.8204 6.17969C35.6134 7.97266 37.0236 10.0625 38.0079 12.3906C39.0275 14.8008 39.5431 17.3594 39.5431 19.9961C39.5431 22.6328 39.0275 25.1953 38.0079 27.6016C37.0236 29.9297 35.6134 32.0195 33.8204 33.8125C32.0275 35.6055 29.9376 37.0156 27.6095 38C25.2032 39.0195 22.6407 39.5352 20.004 39.5352ZM20.004 2.1875C17.6017 2.1875 15.2657 2.65625 13.0704 3.58594C10.9493 4.48438 9.04309 5.76563 7.41028 7.40234C5.77747 9.03906 4.4884 10.9453 3.59387 13.0625C2.66418 15.2578 2.19543 17.5898 2.19543 19.9961C2.19543 22.4023 2.66809 24.7344 3.59387 26.9297C4.49231 29.0508 5.77356 30.957 7.41028 32.5898C9.047 34.2227 10.9493 35.5117 13.0704 36.4063C15.2657 37.3359 17.5978 37.8047 20.004 37.8047C22.4103 37.8047 24.7423 37.332 26.9376 36.4063C29.0587 35.5078 30.965 34.2266 32.5978 32.5898C34.2345 30.9531 35.5197 29.0508 36.4142 26.9297C37.3439 24.7344 37.8126 22.4023 37.8126 19.9961C37.8126 17.5898 37.34 15.2578 36.4142 13.0625C35.5158 10.9414 34.2345 9.03516 32.5978 7.40234C30.9611 5.76563 29.0587 4.48047 26.9376 3.58594C24.7423 2.65625 22.4103 2.1875 20.004 2.1875Z" fill="#2AB2AB"/>
<g id="Vector_2">
<path d="M9.05532 13.8241C9.05532 13.9857 9.00012 14.1472 9.00012 14.3651H9.0473V25.6342C9.0473 25.8524 9.0473 26.0137 9.10249 26.1752L15.756 19.9997L9.05532 13.8241Z" fill="#2AB2AB"/>
<path d="M9.83488 12.4278L20.0001 22.0907L30.1656 12.4844C29.7483 12.1615 29.2759 12 28.6459 12H11.3546C10.6696 12 10.205 12.1613 9.83488 12.4278Z" fill="#2AB2AB"/>
<path d="M19.4255 23.762L16.8585 21.1302L9.89808 27.5722C10.2602 27.8385 10.7326 28 11.3626 28H28.6461C29.2759 28 29.7405 27.8387 30.1106 27.5722L23.1422 21.1302L20.5752 23.762C20.4176 23.9233 20.2051 23.9799 20.0003 23.9799C19.7956 23.9799 19.5831 23.9235 19.4255 23.762Z" fill="#2AB2AB"/>
<path d="M31.0001 14.3653C31.0001 14.1472 30.9529 13.9859 30.8978 13.8243L24.2442 20.0083L30.9449 26.1839C30.9449 26.0223 31.0001 25.8608 31.0001 25.6429V14.3653Z" fill="#2AB2AB"/>
</g>
</g>
<defs>
<clipPath id="clip0_6_690">
<rect width="40" height="40" fill="white"/>
</clipPath>
</defs>
</svg>
