<svg width="40" height="40" viewBox="0 0 40 40" fill="none" xmlns="http://www.w3.org/2000/svg">
<g id="Frame" clip-path="url(#clip0_6_696)">
<path id="Vector" d="M20.004 39.5352C17.3673 39.5352 14.8087 39.0195 12.3986 38C10.0704 37.0156 7.98059 35.6055 6.18762 33.8125C4.39465 32.0195 2.9845 29.9297 2.00012 27.6016C0.980591 25.1953 0.464966 22.6328 0.464966 19.9961C0.464966 17.3594 0.980591 14.8008 2.00012 12.3906C2.9845 10.0625 4.39465 7.97266 6.18762 6.17969C7.98059 4.38672 10.0704 2.97656 12.3986 1.99219C14.8087 0.972656 17.3673 0.457031 20.004 0.457031C22.6407 0.457031 25.1993 0.972656 27.6095 1.99219C29.9376 2.97656 32.0275 4.38672 33.8204 6.17969C35.6134 7.97266 37.0236 10.0625 38.0079 12.3906C39.0275 14.8008 39.5431 17.3594 39.5431 19.9961C39.5431 22.6328 39.0275 25.1953 38.0079 27.6016C37.0236 29.9297 35.6134 32.0195 33.8204 33.8125C32.0275 35.6055 29.9376 37.0156 27.6095 38C25.2032 39.0195 22.6407 39.5352 20.004 39.5352ZM20.004 2.1875C17.6017 2.1875 15.2657 2.65625 13.0704 3.58594C10.9493 4.48438 9.04309 5.76563 7.41028 7.40234C5.77747 9.03906 4.4884 10.9453 3.59387 13.0625C2.66418 15.2578 2.19543 17.5898 2.19543 19.9961C2.19543 22.4023 2.66809 24.7344 3.59387 26.9297C4.49231 29.0508 5.77356 30.957 7.41028 32.5898C9.047 34.2227 10.9493 35.5117 13.0704 36.4063C15.2657 37.3359 17.5978 37.8047 20.004 37.8047C22.4103 37.8047 24.7423 37.332 26.9376 36.4063C29.0587 35.5078 30.965 34.2266 32.5978 32.5898C34.2345 30.9531 35.5197 29.0508 36.4142 26.9297C37.3439 24.7344 37.8126 22.4023 37.8126 19.9961C37.8126 17.5898 37.34 15.2578 36.4142 13.0625C35.5158 10.9414 34.2345 9.03516 32.5978 7.40234C30.9611 5.76563 29.0587 4.48047 26.9376 3.58594C24.7423 2.65625 22.4103 2.1875 20.004 2.1875Z" fill="#2AB2AB"/>
<path id="Union" fill-rule="evenodd" clip-rule="evenodd" d="M19.3113 25.825C19.5297 25.9155 19.7638 25.962 20.0002 25.962C20.2365 25.962 20.4706 25.9155 20.689 25.825C20.9074 25.7345 21.1058 25.602 21.273 25.4348C21.4401 25.2677 21.5727 25.0692 21.6632 24.8509C21.7536 24.6325 21.8002 24.3984 21.8002 24.162V22.134C23.104 21.7974 24.2873 21.1018 25.2157 20.1263C26.1441 19.1509 26.7803 17.9346 27.052 16.6157C27.3238 15.2968 27.2202 13.9281 26.7531 12.6651C26.286 11.4021 25.4741 10.2954 24.4095 9.47074C23.3449 8.64607 22.0704 8.13646 20.7308 7.99982C19.3911 7.86317 18.04 8.10496 16.8308 8.69772C15.6217 9.29047 14.603 10.2104 13.8905 11.3531C13.178 12.4958 12.8003 13.8154 12.8002 15.162C12.8002 15.6394 12.9898 16.0972 13.3274 16.4348C13.6649 16.7724 14.1228 16.962 14.6002 16.962C15.0776 16.962 15.5354 16.7724 15.873 16.4348C16.2105 16.0972 16.4002 15.6394 16.4002 15.162C16.4002 14.45 16.6113 13.754 17.0069 13.162C17.4025 12.57 17.9647 12.1085 18.6225 11.8361C19.2803 11.5636 20.0042 11.4923 20.7025 11.6312C21.4008 11.7701 22.0423 12.113 22.5458 12.6164C23.0492 13.1199 23.3921 13.7614 23.531 14.4597C23.6699 15.158 23.5986 15.8819 23.3261 16.5397C23.0537 17.1975 22.5922 17.7597 22.0002 18.1553C21.4082 18.5509 20.7122 18.762 20.0002 18.762C19.5228 18.762 19.0649 18.9517 18.7274 19.2892C18.3898 19.6268 18.2002 20.0846 18.2002 20.562V24.162C18.2002 24.3984 18.2467 24.6325 18.3372 24.8509C18.4276 25.0692 18.5602 25.2677 18.7274 25.4348C18.8945 25.602 19.093 25.7345 19.3113 25.825ZM21.2502 31.8828C20.8801 32.13 20.4451 32.262 20.0001 32.262C19.4034 32.262 18.8311 32.0249 18.4091 31.603C17.9872 31.181 17.7501 30.6087 17.7501 30.012C17.7501 29.567 17.8821 29.1319 18.1293 28.7619C18.3765 28.3919 18.728 28.1035 19.1391 27.9332C19.5502 27.7629 20.0026 27.7184 20.4391 27.8052C20.8755 27.892 21.2764 28.1063 21.5911 28.421C21.9058 28.7356 22.1201 29.1366 22.2069 29.573C22.2937 30.0095 22.2491 30.4619 22.0789 30.873C21.9086 31.2841 21.6202 31.6355 21.2502 31.8828Z" fill="#2AB2AB"/>
</g>
<defs>
<clipPath id="clip0_6_696">
<rect width="40" height="40" fill="white"/>
</clipPath>
</defs>
</svg>
