<svg width="40" height="40" viewBox="0 0 40 40" fill="none" xmlns="http://www.w3.org/2000/svg">
<g id="Frame" clip-path="url(#clip0_90_3025)">
<path id="Vector" d="M20.004 39.5352C17.3673 39.5352 14.8087 39.0195 12.3986 38C10.0704 37.0156 7.98059 35.6055 6.18762 33.8125C4.39465 32.0195 2.9845 29.9297 2.00012 27.6016C0.980591 25.1953 0.464966 22.6328 0.464966 19.9961C0.464966 17.3594 0.980591 14.8008 2.00012 12.3906C2.9845 10.0625 4.39465 7.97266 6.18762 6.17969C7.98059 4.38672 10.0704 2.97656 12.3986 1.99219C14.8087 0.972656 17.3673 0.457031 20.004 0.457031C22.6407 0.457031 25.1993 0.972656 27.6095 1.99219C29.9376 2.97656 32.0275 4.38672 33.8204 6.17969C35.6134 7.97266 37.0236 10.0625 38.0079 12.3906C39.0275 14.8008 39.5431 17.3594 39.5431 19.9961C39.5431 22.6328 39.0275 25.1953 38.0079 27.6016C37.0236 29.9297 35.6134 32.0195 33.8204 33.8125C32.0275 35.6055 29.9376 37.0156 27.6095 38C25.2032 39.0195 22.6407 39.5352 20.004 39.5352ZM20.004 2.1875C17.6017 2.1875 15.2657 2.65625 13.0704 3.58594C10.9493 4.48438 9.04309 5.76563 7.41028 7.40234C5.77747 9.03906 4.4884 10.9453 3.59387 13.0625C2.66418 15.2578 2.19543 17.5898 2.19543 19.9961C2.19543 22.4023 2.66809 24.7344 3.59387 26.9297C4.49231 29.0508 5.77356 30.957 7.41028 32.5898C9.047 34.2227 10.9493 35.5117 13.0704 36.4063C15.2657 37.3359 17.5978 37.8047 20.004 37.8047C22.4103 37.8047 24.7423 37.332 26.9376 36.4063C29.0587 35.5078 30.965 34.2266 32.5978 32.5898C34.2345 30.9531 35.5197 29.0508 36.4142 26.9297C37.3439 24.7344 37.8126 22.4023 37.8126 19.9961C37.8126 17.5898 37.34 15.2578 36.4142 13.0625C35.5157 10.9414 34.2345 9.03516 32.5978 7.40234C30.9611 5.76563 29.0587 4.48047 26.9376 3.58594C24.7423 2.65625 22.4103 2.1875 20.004 2.1875Z" fill="#2AB2AB"/>
<path id="Vector_2" d="M22.3303 9.4424H22.1475C21.8918 9.44502 21.6454 9.53885 21.4519 9.70719C21.2585 9.87553 21.1306 10.1075 21.0911 10.3618C21.0516 10.6161 21.1029 10.8763 21.236 11.096C21.369 11.3158 21.5752 11.481 21.8179 11.5621C26.5215 12.4905 29.5872 17.0821 28.6648 21.8173C28.6593 21.8461 28.6536 21.8746 28.6476 21.9034C28.5936 22.1843 28.6518 22.4754 28.8095 22.7134C28.9672 22.9515 29.2117 23.1175 29.4901 23.1753H29.6734C29.9287 23.1848 30.1792 23.103 30.3803 22.9444C30.5814 22.7857 30.7202 22.5605 30.772 22.3086C31.9876 16.4075 28.2211 10.6316 22.3591 9.40767L22.3488 9.40568L22.3303 9.4424ZM24.1616 25.719C25.0895 26.3243 25.9545 27.0221 26.7434 27.8018C27.3396 28.297 27.7258 29.0023 27.8236 29.774C27.7849 30.1134 27.6791 30.4416 27.5124 30.7392C27.3458 31.0368 27.1217 31.2978 26.8533 31.5069C25.7998 32.4674 24.4293 32.9995 23.008 33C22.3867 32.9897 21.7701 32.8904 21.1767 32.7049C20.4618 32.4811 19.7786 32.1651 19.1442 31.7648C16.4301 30.1337 14.1444 27.8707 12.479 25.166C10.3492 22.1308 9.14063 18.5383 9.00001 14.8248C8.99851 13.6586 9.33108 12.5166 9.95787 11.5358C10.5847 10.555 11.4791 9.77697 12.534 9.29486C12.9472 9.10216 13.3969 9.00158 13.8524 9C14.2191 8.99966 14.5775 9.11018 14.8811 9.31723C15.1847 9.52428 15.4196 9.81832 15.5553 10.1613C16.0776 11.374 16.4645 12.6413 16.7089 13.94C17.0018 15.4331 16.1778 15.7833 15.3723 16.2626L13.6876 16.9631C13.5661 17.0126 13.4681 17.1071 13.4136 17.2271C13.3591 17.3471 13.3523 17.4835 13.3947 17.6084C14.6247 21.3454 16.7505 24.7198 19.5839 27.4333C19.7124 27.4886 19.8581 27.4886 19.9867 27.4333C20.0584 27.4273 20.1281 27.406 20.1912 27.371C20.2542 27.3361 20.3093 27.2881 20.3527 27.2303C20.628 26.8717 20.9278 26.5331 21.2501 26.2167C21.7189 25.6795 22.3741 25.3432 23.0814 25.2766C23.233 25.2541 23.3872 25.2541 23.5389 25.2766C23.7663 25.366 23.9816 25.4837 24.18 25.6266L24.1616 25.719ZM19.6388 18.3456C19.4981 18.3226 19.3633 18.272 19.2421 18.1965C19.1209 18.1211 19.0156 18.0224 18.9323 17.906C18.849 17.7895 18.7892 17.6578 18.7565 17.5181C18.7238 17.3785 18.7188 17.2337 18.7416 17.0921C18.7645 16.9505 18.8148 16.8148 18.8897 16.6927C18.9647 16.5707 19.0628 16.4647 19.1784 16.3808C19.294 16.297 19.425 16.2368 19.5637 16.2039C19.7024 16.171 19.8462 16.1659 19.9869 16.1889H20.1701C22.6828 16.6745 24.3288 19.1187 23.8463 21.6481L23.8322 21.7189C23.7742 21.9979 23.6098 22.2429 23.3743 22.4011C23.1853 22.5289 22.961 22.5933 22.7335 22.5851H22.5503C22.2719 22.5274 22.0273 22.3614 21.8697 22.1233C21.7121 21.8852 21.654 21.5941 21.7083 21.3132C21.9886 19.9683 21.1332 18.6491 19.797 18.3664L19.7854 18.364L19.6388 18.3456ZM20.7557 14.954C20.5039 14.8868 20.2846 14.7302 20.1384 14.5131C19.9922 14.296 19.9289 14.0331 19.9601 13.7727C19.9913 13.5123 20.1149 13.272 20.3082 13.0961C20.5015 12.9203 20.7514 12.8207 21.0119 12.8157H21.1952C25.385 13.6834 28.0834 17.8061 27.2211 22.0241C27.171 22.2778 27.0327 22.5053 26.831 22.6655C26.6293 22.8258 26.3775 22.9085 26.1207 22.8988H25.9379C25.6595 22.841 25.415 22.675 25.2573 22.4369C25.0996 22.1989 25.0414 21.9078 25.0954 21.6269C25.7155 18.5841 23.7755 15.6094 20.7557 14.9724V14.954Z" fill="#2AB2AB"/>
</g>
<defs>
<clipPath id="clip0_90_3025">
<rect width="40" height="40" fill="white"/>
</clipPath>
</defs>
</svg>
