<svg width="40" height="40" viewBox="0 0 40 40" fill="none" xmlns="http://www.w3.org/2000/svg">
<g id="Frame">
<path id="Union" fill-rule="evenodd" clip-rule="evenodd" d="M13.8541 26.0787H7.11256V32.8202H13.8541V26.0787ZM4.26982 2H16.6969C17.2928 2 17.8644 2.23676 18.2859 2.65819C18.7073 3.07962 18.944 3.6512 18.944 4.24719V16.4494C18.944 17.0454 18.7073 17.617 18.2859 18.0384C17.8644 18.4599 17.2928 18.6966 16.6969 18.6966H4.26989C3.97479 18.6966 3.68257 18.6385 3.40993 18.5256C3.13729 18.4126 2.88956 18.2471 2.68089 18.0384C2.25946 17.617 2.02271 17.0454 2.02271 16.4494V4.24719C2.02271 3.65121 2.25945 3.07964 2.68087 2.65821C3.10228 2.23678 3.67384 2.00002 4.26982 2ZM4.26982 16.4494H16.6969L16.6968 4.24719H4.26982V16.4494ZM4.26989 20.9438H16.6968L16.6969 20.9439C17.2928 20.9439 17.8644 21.1806 18.2859 21.6021C18.7073 22.0235 18.944 22.5951 18.944 23.1911V35.7079C18.944 36.003 18.8859 36.2952 18.773 36.5678C18.6601 36.8405 18.4945 37.0882 18.2859 37.2969C18.0772 37.5056 17.8295 37.6711 17.5568 37.784C17.2842 37.8969 16.992 37.9551 16.6969 37.9551H4.26989C3.97479 37.9551 3.68257 37.8969 3.40993 37.784C3.13729 37.6711 2.88956 37.5056 2.68089 37.2969C2.47222 37.0882 2.30669 36.8405 2.19376 36.5678C2.08083 36.2952 2.02271 36.003 2.02271 35.7079V23.191C2.02271 22.595 2.25946 22.0235 2.68089 21.602C2.88956 21.3934 3.13729 21.2278 3.40993 21.1149C3.68257 21.002 3.97479 20.9438 4.26989 20.9438ZM4.26989 35.7079H16.6968L16.6969 23.1911H4.26989V35.7079ZM7.11256 6.97753H13.8541V13.7191H7.11256V6.97753ZM36.8542 20.9101H22.3036C22.1333 20.9157 21.9665 20.9599 21.8158 21.0395C21.6651 21.119 21.5345 21.2318 21.4338 21.3693C21.3331 21.5068 21.265 21.6653 21.2347 21.833C21.2044 22.0007 21.2125 22.173 21.2586 22.3371V36.8315C21.2586 37.1295 21.377 37.4153 21.5877 37.626C21.7984 37.8367 22.0842 37.9551 22.3822 37.9551C22.6802 37.9551 22.966 37.8367 23.1767 37.626C23.3874 37.4153 23.5058 37.1295 23.5058 36.8315V23.1573H36.8542C37.1522 23.1573 37.4379 23.0389 37.6487 22.8282C37.8594 22.6175 37.9777 22.3317 37.9777 22.0337C37.9777 21.7357 37.8594 21.4499 37.6487 21.2392C37.4379 21.0285 37.1522 20.9101 36.8542 20.9101ZM35.7305 2H23.4384C22.8424 2 22.2709 2.23676 21.8494 2.65819C21.428 3.07962 21.1912 3.6512 21.1912 4.24719V16.4494C21.1912 17.0454 21.428 17.617 21.8494 18.0384C22.2709 18.4599 22.8424 18.6966 23.4384 18.6966H35.7305C36.3265 18.6966 36.8981 18.4599 37.3195 18.0384C37.741 17.617 37.9777 17.0454 37.9777 16.4494V4.24719C37.9777 3.6512 37.741 3.07962 37.3195 2.65819C36.8981 2.23676 36.3265 2 35.7305 2ZM35.7305 16.4494H23.4384V4.24719H35.7305V16.4494ZM32.9552 6.97758H26.2136V13.7191H32.9552V6.97758ZM37.9327 25.5057H35.0338V28.4045H37.9327V25.5057ZM24.3934 25.5057H27.2922V28.3933H30.1912V34.1349H27.2923V28.4045H24.3934V25.5057ZM27.2923 35.09H24.3934V37.9888H27.2923V35.09ZM33.6743 26.9439H30.7754V29.8427H33.6743V26.9439ZM31.3597 23.6068H28.4608L28.4608 26.5057H31.3597V23.6068ZM33.5732 34.9102H30.6743V37.809H33.5732V34.9102ZM37.9327 32.9439H35.0338V38.0001H37.9327V32.9439Z" fill="#2AB2AB"/>
</g>
</svg>
