<svg width="40" height="40" viewBox="0 0 40 40" fill="none" xmlns="http://www.w3.org/2000/svg">
<g id="Frame" clip-path="url(#clip0_6_675)">
<path id="Vector" d="M20.004 39.5352C17.3673 39.5352 14.8087 39.0195 12.3986 38C10.0704 37.0156 7.98059 35.6055 6.18762 33.8125C4.39465 32.0195 2.9845 29.9297 2.00012 27.6016C0.980591 25.1953 0.464966 22.6328 0.464966 19.9961C0.464966 17.3594 0.980591 14.8008 2.00012 12.3906C2.9845 10.0625 4.39465 7.97266 6.18762 6.17969C7.98059 4.38672 10.0704 2.97656 12.3986 1.99219C14.8087 0.972656 17.3673 0.457031 20.004 0.457031C22.6407 0.457031 25.1993 0.972656 27.6095 1.99219C29.9376 2.97656 32.0275 4.38672 33.8204 6.17969C35.6134 7.97266 37.0236 10.0625 38.0079 12.3906C39.0275 14.8008 39.5431 17.3594 39.5431 19.9961C39.5431 22.6328 39.0275 25.1953 38.0079 27.6016C37.0236 29.9297 35.6134 32.0195 33.8204 33.8125C32.0275 35.6055 29.9376 37.0156 27.6095 38C25.2032 39.0195 22.6407 39.5352 20.004 39.5352ZM20.004 2.1875C17.6017 2.1875 15.2657 2.65625 13.0704 3.58594C10.9493 4.48438 9.04309 5.76563 7.41028 7.40234C5.77747 9.03906 4.4884 10.9453 3.59387 13.0625C2.66418 15.2578 2.19543 17.5898 2.19543 19.9961C2.19543 22.4023 2.66809 24.7344 3.59387 26.9297C4.49231 29.0508 5.77356 30.957 7.41028 32.5898C9.047 34.2227 10.9493 35.5117 13.0704 36.4063C15.2657 37.3359 17.5978 37.8047 20.004 37.8047C22.4103 37.8047 24.7423 37.332 26.9376 36.4063C29.0587 35.5078 30.965 34.2266 32.5978 32.5898C34.2345 30.9531 35.5197 29.0508 36.4142 26.9297C37.3439 24.7344 37.8126 22.4023 37.8126 19.9961C37.8126 17.5898 37.34 15.2578 36.4142 13.0625C35.5158 10.9414 34.2345 9.03516 32.5978 7.40234C30.9611 5.76563 29.0587 4.48047 26.9376 3.58594C24.7423 2.65625 22.4103 2.1875 20.004 2.1875Z" fill="#2AB2AB"/>
<path id="Vector_2" d="M24.5548 15.8594C24.8478 15.8594 25.1368 15.8828 25.4337 15.9102C24.6486 12.2422 20.7267 9.52344 16.254 9.52344C11.254 9.52344 7.15637 12.9297 7.15637 17.2617C7.15637 19.7617 8.51575 21.8164 10.7931 23.4102L9.88294 26.1484L13.0665 24.5469C14.2032 24.7695 15.1212 25 16.2501 25C16.5314 25 16.8165 24.9922 17.0978 24.9609C16.9142 24.3555 16.8165 23.7109 16.8165 23.0586C16.8165 19.0859 20.2306 15.8594 24.5548 15.8594ZM19.6564 13.3906C20.34 13.3906 20.7931 13.8437 20.7931 14.5273C20.7931 15.2109 20.34 15.6641 19.6564 15.6641C18.9689 15.6641 18.2853 15.2109 18.2853 14.5273C18.297 13.8477 18.9806 13.3906 19.6564 13.3906ZM13.2892 15.668C12.6017 15.668 11.9181 15.2148 11.9181 14.5312C11.9181 13.8477 12.6017 13.3945 13.2892 13.3945C13.9728 13.3945 14.4259 13.8477 14.4259 14.5312C14.4259 15.207 13.9767 15.668 13.2892 15.668ZM32.8556 22.9531C32.8556 19.3164 29.2189 16.3555 25.129 16.3555C20.797 16.3555 17.3907 19.3203 17.3907 22.9531C17.3907 26.6016 20.797 29.5547 25.129 29.5547C26.0353 29.5547 26.9532 29.3242 27.8595 29.1016L30.3595 30.4727L29.6759 28.1953C31.4962 26.8242 32.8556 25 32.8556 22.9531ZM22.6212 21.8164C22.1681 21.8164 21.715 21.3633 21.715 20.9102C21.715 20.457 22.1681 20.0039 22.6212 20.0039C23.3087 20.0039 23.7579 20.457 23.7579 20.9102C23.7579 21.3633 23.3048 21.8164 22.6212 21.8164ZM27.629 21.8164C27.1759 21.8164 26.7228 21.3633 26.7228 20.9102C26.7228 20.457 27.1759 20.0039 27.629 20.0039C28.3126 20.0039 28.7657 20.457 28.7657 20.9102C28.7657 21.3633 28.3009 21.8164 27.629 21.8164Z" fill="#2AB2AB"/>
</g>
<defs>
<clipPath id="clip0_6_675">
<rect width="40" height="40" fill="white"/>
</clipPath>
</defs>
</svg>
