<svg width="460" height="362" viewBox="0 0 460 362" fill="none" xmlns="http://www.w3.org/2000/svg">
<path d="M132 32.25V100H245V14.25C245 6.37994 238.62 0 230.75 0C222.88 0 216.5 6.37994 216.5 14.25V22.5C216.5 27.4706 212.471 31.5 207.5 31.5H178.071C174.994 31.5 172.5 29.0056 172.5 25.9286C172.5 18.236 166.264 12 158.571 12H152.25C141.066 12 132 21.0662 132 32.25Z" fill="url(#paint0_linear_115_10258)"/>
<ellipse cx="230" cy="265.5" rx="230" ry="96.5" fill="#2AB2AB"/>
<ellipse cx="230" cy="265.5" rx="230" ry="96.5" fill="url(#paint1_linear_115_10258)"/>
<path d="M46 110.5V221H401.5V84C401.5 74.335 393.665 66.5 384 66.5C374.335 66.5 366.5 74.335 366.5 84V141.75C366.5 145.478 363.478 148.5 359.75 148.5H359.571C355.942 148.5 353 145.558 353 141.929C353 132.855 345.645 125.5 336.571 125.5H325.571C322.494 125.5 320 123.006 320 119.929C320 112.236 313.764 106 306.071 106H150.857C145.137 106 140.5 110.637 140.5 116.357C140.5 118.645 138.645 120.5 136.357 120.5H130.643C125.317 120.5 121 124.817 121 130.143C121 132.273 119.273 134 117.143 134H93.8571C87.3086 134 82 128.691 82 122.143V110.5C82 100.559 73.9411 92.5 64 92.5C54.0589 92.5 46 100.559 46 110.5Z" fill="url(#paint2_linear_115_10258)"/>
<path d="M173.5 330L394 317.5L300 230L148 217L173.5 330Z" fill="url(#paint3_linear_115_10258)"/>
<rect x="148" y="67" width="163" height="163" rx="15" fill="#2AB2AB"/>
<path d="M148 93H311V215C311 223.284 304.284 230 296 230H163C154.716 230 148 223.284 148 215V93Z" fill="#2AB2AB"/>
<path d="M148 93H311V215C311 223.284 304.284 230 296 230H163C154.716 230 148 223.284 148 215V93Z" fill="url(#paint4_linear_115_10258)"/>
<rect x="163" y="111" width="133" height="52" rx="6" fill="white"/>
<rect x="163" y="186" width="47" height="7" rx="3.5" fill="white"/>
<rect x="163" y="202" width="106" height="7" rx="3.5" fill="white"/>
<path fill-rule="evenodd" clip-rule="evenodd" d="M240.269 129.262C241.244 128.287 241.244 126.706 240.269 125.731C239.294 124.756 237.714 124.756 236.739 125.731L228.5 133.969L220.262 125.731C219.287 124.756 217.707 124.756 216.732 125.731C215.757 126.706 215.757 128.287 216.732 129.262L224.97 137.5L216.732 145.738C215.757 146.713 215.757 148.294 216.732 149.269C217.707 150.244 219.287 150.244 220.262 149.269L228.5 141.031L236.739 149.269C237.714 150.244 239.294 150.244 240.269 149.269C241.244 148.294 241.244 146.713 240.269 145.738L232.031 137.5L240.269 129.262Z" fill="#2AB2AB"/>
<path fill-rule="evenodd" clip-rule="evenodd" d="M240.268 129.262C241.243 128.287 241.243 126.706 240.268 125.731C239.293 124.756 237.713 124.756 236.738 125.731L228.5 133.969L220.261 125.731C219.286 124.756 217.706 124.756 216.731 125.731C215.756 126.706 215.756 128.287 216.731 129.262L224.969 137.5L216.731 145.738C215.756 146.713 215.756 148.294 216.731 149.269C217.706 150.244 219.286 150.244 220.261 149.269L228.5 141.031L236.738 149.269C237.713 150.244 239.293 150.244 240.268 149.269C241.243 148.294 241.243 146.713 240.268 145.738L232.03 137.5L240.268 129.262Z" fill="white" fill-opacity="0.6"/>
<defs>
<linearGradient id="paint0_linear_115_10258" x1="188.5" y1="0" x2="188.5" y2="100" gradientUnits="userSpaceOnUse">
<stop stop-color="#F7F7F7"/>
<stop offset="1" stop-color="#F7F7F7" stop-opacity="0"/>
</linearGradient>
<linearGradient id="paint1_linear_115_10258" x1="230" y1="169" x2="230" y2="362" gradientUnits="userSpaceOnUse">
<stop stop-color="white" stop-opacity="0.9"/>
<stop offset="0.75" stop-color="white"/>
</linearGradient>
<linearGradient id="paint2_linear_115_10258" x1="223.75" y1="66.5" x2="223.75" y2="221" gradientUnits="userSpaceOnUse">
<stop stop-color="#F7F7F7"/>
<stop offset="1" stop-color="#F7F7F7" stop-opacity="0"/>
</linearGradient>
<linearGradient id="paint3_linear_115_10258" x1="252.75" y1="300.5" x2="252.75" y2="230" gradientUnits="userSpaceOnUse">
<stop stop-color="#F7F7F7" stop-opacity="0"/>
<stop offset="1" stop-color="#E8E8E8"/>
</linearGradient>
<linearGradient id="paint4_linear_115_10258" x1="229.5" y1="93" x2="229.5" y2="230" gradientUnits="userSpaceOnUse">
<stop stop-color="white"/>
<stop offset="1" stop-color="white" stop-opacity="0.4"/>
</linearGradient>
</defs>
</svg>
