<svg width="111" height="34" viewBox="0 0 111 34" fill="none" xmlns="http://www.w3.org/2000/svg">
<path d="M0.660426 22.2788V19.7331H7.17265C8.21155 19.7331 8.90149 19.6333 9.24246 19.4337C9.47914 19.3005 9.67428 19.1043 9.80624 18.867C9.93819 18.6296 10.0018 18.3603 9.98999 18.0889C10.0078 17.7784 9.9343 17.4694 9.77868 17.2001C9.62306 16.9307 9.39208 16.7128 9.11417 16.5731C8.78802 16.3883 8.26172 16.296 7.53529 16.296H4.88901C3.28105 16.296 2.12127 16.004 1.40967 15.42C0.962158 15.0408 0.604562 14.5669 0.362782 14.0325C0.118775 13.4659 -0.00472204 12.8547 0.000138071 12.2378C-0.00567464 11.2555 0.301051 10.2968 0.87596 9.5004C1.44616 8.70199 2.35847 8.23208 3.61291 8.09065C4.04055 8.04844 4.67404 8.02734 5.51337 8.02734H12.5798V10.5782H6.19076C5.55478 10.567 4.91901 10.61 4.2903 10.7066C3.6494 10.8628 3.32895 11.3464 3.32895 12.1574C3.32895 12.8417 3.59922 13.2979 4.13977 13.5261C4.49557 13.6971 5.09371 13.7827 5.93418 13.7827H8.21782C9.38444 13.7827 10.2529 13.8825 10.823 14.0821C11.8323 14.4243 12.5296 15.0219 12.9151 15.8751C13.2163 16.5686 13.3689 17.3175 13.3633 18.0735C13.3743 18.8895 13.1651 19.6933 12.7577 20.4003C12.5038 20.8643 12.1464 21.2635 11.7133 21.567C11.2802 21.8705 10.783 22.0702 10.2603 22.1505C9.44616 22.252 8.62581 22.2949 7.80556 22.2788H0.660426ZM24.193 11.8802V14.1043H20.7718C19.62 14.1043 18.8218 14.3604 18.377 14.8725C17.9494 15.3573 17.7355 16.0986 17.7355 17.0966C17.7355 18.2076 18.0845 19.0191 18.7824 19.5312C19.0598 19.7279 19.3704 19.8728 19.6993 19.9589C20.1647 20.0394 20.6367 20.0749 21.1088 20.065H24.1879V22.2891H20.2843C19.2329 22.2891 18.4004 22.1825 17.7869 21.9692C17.1595 21.7454 16.6008 21.3629 16.1652 20.8588C15.2689 19.8631 14.8201 18.5959 14.819 17.0573C14.819 15.2073 15.3527 13.8266 16.4201 12.9153C16.8655 12.5367 17.3924 12.2661 17.9596 12.1249C18.7215 11.9479 19.5023 11.8657 20.2843 11.8802H24.193ZM26.3672 11.8802H29.2273V22.2788H26.3672V11.8802ZM26.3672 10.8126V8.03761H29.2273V10.8126H26.3672ZM30.7138 22.2754L36.6068 8.03419H40.0861L45.9774 22.2754H42.4348L41.0475 18.9871H35.6454L34.2581 22.2754H30.7138ZM38.3567 11.4713L36.328 16.4465H40.3855L38.3567 11.4713ZM47.4451 11.8768H52.9566C53.5896 11.8554 54.2226 11.9198 54.8383 12.0684C55.2835 12.1866 55.694 12.4095 56.0357 12.7185C56.761 13.3869 57.1236 14.4402 57.1236 15.8785V22.284H54.255V15.5534C54.255 15.0402 54.1409 14.6701 53.9128 14.4431C53.6848 14.2161 53.3078 14.1021 52.7821 14.1009H50.3052V22.2788H47.4451V11.8768ZM66.9595 15.9555C66.9595 15.2301 66.8107 14.7374 66.5113 14.4824C66.212 14.2275 65.656 14.0975 64.7819 14.0975H59.9581V11.8734H64.7819C65.3808 11.8622 65.9798 11.8839 66.5763 11.9384C66.916 11.9687 67.2518 12.0329 67.5787 12.13C69.1593 12.7277 69.9069 14.1579 69.8213 16.4208V22.272H63.8C63.0521 22.2866 62.3039 22.258 61.5592 22.1865C61.1725 22.1256 60.802 21.9877 60.4695 21.781C59.6302 21.2107 59.2105 20.3496 59.2105 19.1976C59.1987 18.5447 59.3687 17.9014 59.7015 17.3396C60.0043 16.8176 60.4798 16.4176 61.046 16.2087C61.5307 16.0376 62.3352 15.9521 63.4596 15.9521L66.9595 15.9555ZM66.9595 18.1796H63.1808C62.8954 18.1657 62.6148 18.257 62.3922 18.4362C62.2977 18.5263 62.2238 18.6358 62.1757 18.7572C62.1276 18.8786 62.1063 19.009 62.1134 19.1394C62.1018 19.2768 62.1274 19.4148 62.1876 19.5389C62.2478 19.6629 62.3404 19.7684 62.4555 19.8443C62.6973 19.9857 63.1027 20.057 63.6718 20.0581H66.9595V18.1796ZM75.3414 22.2857H72.483V8.03761H75.3448L75.3414 22.2857ZM84.9618 20.0616V11.8802H87.8219V22.065C87.8219 23.4188 87.4661 24.4083 86.7545 25.0333C86.0429 25.6584 84.9116 25.9715 83.3607 25.9726H78.2614V23.7485H83.3641C83.9753 23.7485 84.3745 23.6846 84.5615 23.5569C84.6952 23.4832 84.7951 23.3605 84.8403 23.2147C84.91 22.9059 84.953 22.5916 84.9686 22.2754H82.4233C79.4913 22.3473 78.104 20.8172 78.2614 17.6852V11.8802H81.1215V17.4114C81.1215 18.4927 81.2139 19.2044 81.3986 19.5466C81.5834 19.8888 81.9893 20.0599 82.6165 20.0599L84.9618 20.0616ZM99.4197 11.8836V14.1078H94.3632C93.991 14.0879 93.6178 14.1167 93.253 14.1933C92.9257 14.3074 92.7621 14.5851 92.7621 15.0265C92.7561 15.198 92.7964 15.3681 92.8789 15.5186C92.9614 15.6691 93.083 15.7947 93.2308 15.8819C93.4018 15.996 93.8648 16.053 94.6198 16.053H96.3064C97.3875 16.053 98.2428 16.2811 98.8723 16.7374C99.5702 17.2506 99.9192 18.0051 99.9192 19.0008C99.9239 19.741 99.6998 20.4646 99.2777 21.0727C99.0201 21.5249 98.6121 21.8724 98.1248 22.0547C97.6857 22.211 96.9388 22.2891 95.8839 22.2891H89.9652V20.065H95.0679C95.694 20.065 96.1211 20.0581 96.3492 20.0445C96.8623 19.9863 97.1172 19.7023 97.1172 19.1685C97.1172 18.7408 96.9462 18.4499 96.604 18.2925C96.433 18.207 96.0207 18.1642 95.3656 18.1642H93.6379C93.108 18.1779 92.5781 18.1349 92.0573 18.0359C91.6947 17.9481 91.3533 17.7887 91.0532 17.5671C90.6575 17.2817 90.3418 16.8993 90.1363 16.4568C89.9225 15.9718 89.8135 15.4471 89.8164 14.917C89.8164 13.8791 90.1933 13.0539 90.9471 12.4414C91.4033 12.0707 92.193 11.8853 93.3163 11.8853L99.4197 11.8836ZM110.581 15.9623V18.1865H104.565C104.621 18.8708 104.842 19.3544 105.227 19.6373C105.613 19.9201 106.24 20.0627 107.109 20.065H110.588V22.2891H106.785C106.103 22.3049 105.421 22.233 104.757 22.0752C104.233 21.9128 103.741 21.6598 103.304 21.3276C102.039 20.3456 101.406 18.8868 101.406 16.9512C101.382 15.7764 101.733 14.6244 102.408 13.6629C102.816 13.0609 103.386 12.5864 104.052 12.2942C104.693 12.0239 105.532 11.8888 106.572 11.8888H110.585V14.1129H106.785C106.002 14.1129 105.454 14.248 105.142 14.5184C104.829 14.775 104.628 15.2592 104.565 15.9709L110.581 15.9623Z" fill="#423C50"/>
</svg>
