<svg width="34" height="34" viewBox="0 0 34 34" fill="none" xmlns="http://www.w3.org/2000/svg">
<path fill-rule="evenodd" clip-rule="evenodd" d="M2.47454 12.5324C2.77943 12.2241 3.19266 12.051 3.62351 12.051C4.05436 12.051 4.46759 12.2241 4.77248 12.5324C7.33862 15.1321 9.85009 15.2442 9.9946 15.2481H23.863C24.471 15.2371 25.0784 15.291 25.6753 15.409C27.0215 15.7003 29.7699 16.5467 32.1212 18.9276C32.2721 19.0804 32.3918 19.2618 32.4735 19.4614C32.5551 19.661 32.5972 19.875 32.5972 20.0911C32.5972 20.3071 32.5551 20.5211 32.4735 20.7207C32.3918 20.9203 32.2721 21.1017 32.1212 21.2545C31.9704 21.4073 31.7912 21.5285 31.5941 21.6112C31.397 21.6938 31.1857 21.7364 30.9723 21.7364C30.7589 21.7364 30.5476 21.6938 30.3505 21.6112C30.1533 21.5285 29.9742 21.4073 29.8233 21.2545C28.4913 19.9354 26.8182 19.0246 24.997 18.627C24.623 18.558 24.243 18.5284 23.863 18.5387H9.90086C9.259 18.5203 5.82446 18.2539 2.47975 14.8605C2.32816 14.7082 2.20776 14.527 2.12544 14.3274C2.04311 14.1279 2.00049 13.9138 2 13.6975C1.99952 13.4813 2.04119 13.267 2.12262 13.0671C2.20404 12.8671 2.32364 12.6854 2.47454 12.5324Z" fill="#2AB2AB"/>
<path fill-rule="evenodd" clip-rule="evenodd" d="M2.47454 12.5324C2.77943 12.2241 3.19266 12.051 3.62351 12.051C4.05436 12.051 4.46759 12.2241 4.77248 12.5324C7.33862 15.1321 9.85009 15.2442 9.9946 15.2481H23.8617C24.4701 15.2371 25.078 15.291 25.6753 15.409C27.0215 15.7003 29.7699 16.5467 32.1212 18.9289C32.2721 19.0817 32.3918 19.2631 32.4735 19.4627C32.5551 19.6624 32.5972 19.8763 32.5972 20.0924C32.5972 20.3084 32.5551 20.5224 32.4735 20.722C32.3918 20.9216 32.2721 21.103 32.1212 21.2558C31.9704 21.4086 31.7912 21.5298 31.5941 21.6125C31.397 21.6952 31.1857 21.7377 30.9723 21.7377C30.7589 21.7377 30.5476 21.6952 30.3505 21.6125C30.1533 21.5298 29.9742 21.4086 29.8233 21.2558C28.4913 19.9365 26.8183 19.0252 24.997 18.627C24.6226 18.558 24.2421 18.5284 23.8617 18.5387H9.90086C9.2577 18.5203 5.82446 18.2539 2.47975 14.8605C2.32816 14.7082 2.20776 14.527 2.12544 14.3274C2.04311 14.1279 2.00049 13.9138 2 13.6975C1.99952 13.4813 2.04119 13.267 2.12262 13.0671C2.20404 12.8671 2.32364 12.6854 2.47454 12.5324Z" fill="black" fill-opacity="0.1"/>
<path d="M14.801 4.7845C14.8761 4.71981 14.9375 4.64041 14.9816 4.55108C15.0256 4.46175 15.0514 4.36432 15.0573 4.26466C15.0632 4.16499 15.0492 4.06515 15.016 3.97111C14.9829 3.87708 14.9313 3.79079 14.8644 3.71745C14.7975 3.6441 14.7167 3.58521 14.6267 3.5443C14.5368 3.50339 14.4396 3.48131 14.341 3.47939C14.2424 3.47746 14.1445 3.49574 14.053 3.53311C13.9616 3.57048 13.8786 3.62619 13.8089 3.69687L4.27083 12.6141C4.13743 12.7495 4.0609 12.9319 4.05726 13.1231C4.05363 13.3144 4.12316 13.4996 4.25132 13.6401C4.37948 13.7806 4.55633 13.8655 4.74488 13.877C4.93342 13.8885 5.11905 13.8257 5.26292 13.7018L14.801 4.7845Z" fill="#2AB2AB"/>
<path d="M16.4249 7.96301C16.5468 8.11527 16.6041 8.3102 16.5843 8.50515C16.5646 8.7001 16.4693 8.87917 16.3195 9.00318L8.43358 15.5646C8.35937 15.6262 8.27391 15.6724 8.18206 15.7006C8.09021 15.7288 7.99378 15.7384 7.89827 15.7288C7.80277 15.7193 7.71005 15.6908 7.62542 15.645C7.54079 15.5991 7.4659 15.5369 7.40504 15.4617C7.34417 15.3866 7.29851 15.3001 7.27068 15.207C7.24284 15.114 7.23336 15.0164 7.24279 14.9197C7.26184 14.7244 7.35673 14.5447 7.50659 14.4202L15.3964 7.86018C15.4706 7.79849 15.556 7.75222 15.6479 7.724C15.7398 7.69578 15.8362 7.68617 15.9317 7.69572C16.0273 7.70527 16.12 7.73379 16.2046 7.77966C16.2892 7.82552 16.3641 7.88783 16.4249 7.96301Z" fill="#2AB2AB"/>
<path d="M26.0168 19.008C26.0829 18.9309 26.1326 18.8409 26.1626 18.7434C26.1927 18.646 26.2025 18.5433 26.1915 18.4418C26.1804 18.3403 26.1487 18.2423 26.0984 18.1538C26.0481 18.0653 25.9802 17.9884 25.8991 17.9278C25.818 17.8672 25.7253 17.8242 25.627 17.8016C25.5287 17.7791 25.4268 17.7773 25.3278 17.7966C25.2288 17.8158 25.1348 17.8556 25.0517 17.9135C24.9686 17.9713 24.8983 18.0459 24.8451 18.1326L18.2494 27.2292C18.1832 27.3062 18.1336 27.3963 18.1035 27.4938C18.0735 27.5912 18.0637 27.6939 18.0747 27.7954C18.0858 27.8969 18.1175 27.9949 18.1678 28.0834C18.2181 28.1719 18.286 28.2488 18.3671 28.3094C18.4482 28.37 18.5409 28.413 18.6392 28.4356C18.7375 28.4581 18.8394 28.4599 18.9384 28.4406C19.0374 28.4214 19.1314 28.3816 19.2145 28.3237C19.2976 28.2659 19.3679 28.1913 19.4211 28.1046L26.0168 19.008Z" fill="#2AB2AB"/>
<path d="M30.327 20.8023C30.395 20.7314 30.4483 20.6476 30.4838 20.5556C30.5194 20.4636 30.5363 20.3653 30.5338 20.2666C30.5313 20.1679 30.5093 20.0706 30.4691 19.9806C30.4289 19.8906 30.3714 19.8097 30.2998 19.7425C30.2283 19.6754 30.1443 19.6234 30.0526 19.5896C29.9609 19.5558 29.8635 19.5409 29.7661 19.5458C29.6687 19.5507 29.5732 19.5753 29.4853 19.6181C29.3974 19.6609 29.3188 19.7211 29.2542 19.795L19.4727 30.4736C19.4047 30.5444 19.3514 30.6283 19.3158 30.7203C19.2803 30.8123 19.2633 30.9105 19.2659 31.0093C19.2684 31.108 19.2904 31.2052 19.3306 31.2952C19.3708 31.3852 19.4283 31.4662 19.4998 31.5333C19.5714 31.6005 19.6554 31.6525 19.7471 31.6863C19.8388 31.72 19.9362 31.7349 20.0336 31.73C20.131 31.7251 20.2265 31.7006 20.3144 31.6578C20.4023 31.615 20.4809 31.5548 20.5455 31.4808L30.327 20.8023Z" fill="#2AB2AB"/>
<path d="M19.6047 18.5387L17.3914 22.6598C17.3191 22.8285 17.3115 23.0183 17.37 23.1923C17.4284 23.3664 17.5488 23.5121 17.7076 23.6011C17.8664 23.6902 18.0523 23.7162 18.229 23.674C18.4057 23.6318 18.5606 23.5245 18.6634 23.373L21.2673 18.544L19.6047 18.5387Z" fill="#2AB2AB"/>
<path d="M16.0072 14.4874L14.7495 15.2481H11.8931L15.2573 13.2152C15.4237 13.1251 15.6181 13.1035 15.7998 13.1551C15.9815 13.2066 16.1365 13.3273 16.2325 13.4918C16.3285 13.6564 16.3579 13.8521 16.3147 14.0381C16.2715 14.2241 16.159 14.3861 16.0007 14.4901L16.0072 14.4874Z" fill="#2AB2AB"/>
<path opacity="0.5" fill-rule="evenodd" clip-rule="evenodd" d="M25.8606 17.9679C25.938 18.0254 26.0035 18.0978 26.0533 18.1809C26.103 18.2641 26.1361 18.3564 26.1506 18.4525C26.1652 18.5486 26.1608 18.6467 26.1378 18.7411C26.1149 18.8355 26.0737 18.9244 26.0168 19.0027L19.4211 28.0993C19.3679 28.186 19.2976 28.2606 19.2145 28.3185C19.1314 28.3763 19.0374 28.4161 18.9384 28.4353C18.8394 28.4546 18.7375 28.4529 18.6392 28.4303C18.5409 28.4077 18.4482 28.3648 18.3671 28.3042C18.286 28.2435 18.2181 28.1666 18.1678 28.0781C18.1175 27.9897 18.0858 27.8916 18.0747 27.7901C18.0637 27.6887 18.0735 27.586 18.1035 27.4885C18.1336 27.3911 18.1832 27.301 18.2494 27.2239L24.8451 18.1274C24.9596 17.971 25.1305 17.8666 25.3205 17.8367C25.5106 17.8068 25.7046 17.854 25.8606 17.9679Z" fill="url(#paint0_linear_115_10347)"/>
<path opacity="0.5" fill-rule="evenodd" clip-rule="evenodd" d="M30.288 19.7555C30.4302 19.8891 30.5142 20.0744 30.5215 20.2707C30.5288 20.467 30.4589 20.6582 30.327 20.8023L20.5455 31.4808C20.4809 31.5548 20.4023 31.615 20.3144 31.6578C20.2265 31.7006 20.131 31.7252 20.0336 31.73C19.9362 31.7349 19.8388 31.7201 19.7471 31.6863C19.6554 31.6525 19.5714 31.6005 19.4998 31.5334C19.4283 31.4662 19.3708 31.3852 19.3306 31.2952C19.2904 31.2052 19.2684 31.108 19.2659 31.0093C19.2633 30.9105 19.2803 30.8123 19.3158 30.7203C19.3514 30.6283 19.4047 30.5444 19.4727 30.4736L29.2542 19.7951C29.3863 19.6514 29.5693 19.5665 29.763 19.5591C29.9568 19.5517 30.1455 19.6223 30.288 19.7555Z" fill="url(#paint1_linear_115_10347)"/>
<path opacity="0.5" fill-rule="evenodd" clip-rule="evenodd" d="M16.4249 7.96301C16.5468 8.11527 16.6041 8.3102 16.5843 8.50515C16.5646 8.7001 16.4693 8.87917 16.3195 9.00318L8.43358 15.5646C8.35937 15.6262 8.27391 15.6724 8.18206 15.7006C8.09021 15.7288 7.99378 15.7384 7.89827 15.7288C7.80277 15.7193 7.71005 15.6908 7.62542 15.645C7.54079 15.5991 7.4659 15.5369 7.40504 15.4617C7.34417 15.3866 7.29851 15.3001 7.27068 15.207C7.24284 15.114 7.23336 15.0164 7.24279 14.9197C7.26184 14.7244 7.35673 14.5447 7.50659 14.4202L15.3964 7.86018C15.4706 7.79849 15.556 7.75222 15.6479 7.724C15.7398 7.69578 15.8362 7.68617 15.9317 7.69572C16.0273 7.70527 16.12 7.73379 16.2046 7.77966C16.2892 7.82552 16.3641 7.88783 16.4249 7.96301Z" fill="url(#paint2_linear_115_10347)"/>
<path opacity="0.5" fill-rule="evenodd" clip-rule="evenodd" d="M14.8427 3.73772C14.9742 3.88214 15.0437 4.07354 15.0359 4.26984C15.0281 4.46613 14.9436 4.65125 14.801 4.78448L5.26292 13.7017C5.11905 13.8257 4.93342 13.8884 4.74488 13.877C4.55633 13.8655 4.37948 13.7806 4.25132 13.6401C4.12316 13.4996 4.05363 13.3144 4.05726 13.1231C4.0609 12.9319 4.13743 12.7495 4.27083 12.6141L13.8089 3.69685C13.9514 3.5635 14.1403 3.4929 14.3342 3.50056C14.528 3.50823 14.7109 3.59353 14.8427 3.73772Z" fill="url(#paint3_linear_115_10347)"/>
<path opacity="0.5" fill-rule="evenodd" clip-rule="evenodd" d="M19.6047 18.5387L17.3914 22.6598C17.3191 22.8285 17.3115 23.0183 17.37 23.1923C17.4284 23.3664 17.5488 23.5121 17.7076 23.6011C17.8664 23.6902 18.0523 23.7162 18.229 23.674C18.4057 23.6318 18.5606 23.5245 18.6634 23.373L21.2673 18.544L19.6047 18.5387Z" fill="url(#paint4_linear_115_10347)"/>
<path opacity="0.5" fill-rule="evenodd" clip-rule="evenodd" d="M14.7494 15.2481L16.0071 14.4874C16.1654 14.3834 16.2779 14.2215 16.3211 14.0355C16.3643 13.8495 16.3348 13.6537 16.2388 13.4892C16.1429 13.3246 15.9879 13.204 15.8061 13.1525C15.6244 13.1009 15.4301 13.1225 15.2637 13.2126L11.8994 15.2455L14.7494 15.2481Z" fill="url(#paint5_linear_115_10347)"/>
<path opacity="0.3" fill-rule="evenodd" clip-rule="evenodd" d="M11.2904 15.9073C11.2904 15.7325 11.3589 15.5648 11.481 15.4412C11.6031 15.3176 11.7687 15.2481 11.9413 15.2481H22.6564C22.829 15.2481 22.9946 15.3176 23.1167 15.4412C23.2388 15.5648 23.3074 15.7325 23.3074 15.9073V17.8848C23.3074 18.0596 23.2388 18.2273 23.1167 18.3509C22.9946 18.4745 22.829 18.544 22.6564 18.544H11.94C11.7674 18.544 11.6018 18.4745 11.4797 18.3509C11.3576 18.2273 11.2891 18.0596 11.2891 17.8848L11.2904 15.9073Z" fill="white"/>
<path fill-rule="evenodd" clip-rule="evenodd" d="M12.165 1.04829C12.0139 1.20098 11.8941 1.38233 11.8123 1.58196C11.7306 1.7816 11.6885 1.9956 11.6885 2.21172C11.6885 2.42784 11.7306 2.64184 11.8123 2.84148C11.8941 3.04111 12.0139 3.22246 12.165 3.37516C14.6269 5.86814 15.3782 8.22137 15.5969 9.1864C15.6576 9.51443 15.6829 9.84817 15.6724 10.1817V23.7751C15.6661 24.2119 15.6957 24.6485 15.7609 25.0803C15.9927 26.4672 16.8468 29.8263 19.9272 32.9495C20.235 33.2415 20.6428 33.4008 21.0645 33.3938C21.4862 33.3869 21.8887 33.2141 22.187 32.9122C22.4852 32.6102 22.6558 32.2026 22.6627 31.7756C22.6695 31.3486 22.5122 30.9356 22.2238 30.6239C19.7749 28.1428 19.1265 25.4982 18.969 24.5332C18.9334 24.2826 18.9185 24.0295 18.9247 23.7765V10.1817C18.9368 9.60146 18.8839 9.02165 18.7672 8.4534C18.4404 7.00982 17.4418 4.06201 14.4707 1.04829C14.3198 0.894147 14.1402 0.771801 13.9423 0.688308C13.7444 0.604815 13.5322 0.561829 13.3178 0.561829C13.1035 0.561829 12.8912 0.604815 12.6934 0.688308C12.4955 0.771801 12.3159 0.894147 12.165 1.04829Z" fill="#2AB2AB"/>
<path fill-rule="evenodd" clip-rule="evenodd" d="M12.165 1.04829C12.0139 1.20099 11.8941 1.38234 11.8123 1.58197C11.7306 1.78161 11.6885 1.99561 11.6885 2.21173C11.6885 2.42785 11.7306 2.64185 11.8123 2.84149C11.8941 3.04112 12.0139 3.22247 12.165 3.37516C14.6269 5.86815 15.3782 8.22138 15.5969 9.18641C15.6568 9.51719 15.6808 9.8536 15.6685 10.1897V23.7818C15.6622 24.2185 15.6918 24.6551 15.757 25.0869C15.9888 26.4738 16.8429 29.8329 19.9233 32.9561C20.2287 33.265 20.6428 33.4384 21.0745 33.4382C21.5062 33.4379 21.9201 33.264 22.2251 32.9548C22.5302 32.6455 22.7015 32.2262 22.7012 31.7891C22.701 31.352 22.5292 30.9328 22.2238 30.6239C19.7749 28.1428 19.1265 25.4982 18.969 24.5332C18.9334 24.2827 18.9185 24.0295 18.9247 23.7765V10.1897C18.9368 9.60894 18.884 9.02869 18.7672 8.46C18.4404 7.01642 17.4418 4.06861 14.4707 1.05489C14.3202 0.900315 14.141 0.777456 13.9433 0.693397C13.7457 0.609338 13.5336 0.565744 13.3192 0.565131C13.1048 0.564518 12.8925 0.606898 12.6944 0.689826C12.4962 0.772754 12.3163 0.894587 12.165 1.04829Z" fill="white" fill-opacity="0.2"/>
<path opacity="0.4" fill-rule="evenodd" clip-rule="evenodd" d="M16.3194 10.8106C16.1468 10.8106 15.9812 10.88 15.8591 11.0037C15.737 11.1273 15.6685 11.2949 15.6685 11.4698V21.9914C15.6685 22.1663 15.737 22.3339 15.8591 22.4575C15.9812 22.5811 16.1468 22.6506 16.3194 22.6506H18.2724C18.445 22.6506 18.6106 22.5811 18.7327 22.4575C18.8547 22.3339 18.9233 22.1663 18.9233 21.9914V11.4684C18.9233 11.2936 18.8547 11.126 18.7327 11.0023C18.6106 10.8787 18.445 10.8093 18.2724 10.8093L16.3194 10.8106Z" fill="white"/>
<defs>
<linearGradient id="paint0_linear_115_10347" x1="26.0103" y1="22.967" x2="17.9327" y2="23.2795" gradientUnits="userSpaceOnUse">
<stop stop-color="white"/>
<stop offset="1" stop-opacity="0"/>
</linearGradient>
<linearGradient id="paint1_linear_115_10347" x1="30.0979" y1="25.6353" x2="19.2774" y2="25.6417" gradientUnits="userSpaceOnUse">
<stop stop-color="white"/>
<stop offset="1" stop-opacity="0"/>
</linearGradient>
<linearGradient id="paint2_linear_115_10347" x1="16.0305" y1="11.9774" x2="7.46277" y2="11.4386" gradientUnits="userSpaceOnUse">
<stop stop-opacity="0"/>
<stop offset="1" stop-color="white"/>
</linearGradient>
<linearGradient id="paint3_linear_115_10347" x1="14.6213" y1="8.696" x2="4.03518" y2="8.70371" gradientUnits="userSpaceOnUse">
<stop stop-opacity="0"/>
<stop offset="1" stop-color="white"/>
</linearGradient>
<linearGradient id="paint4_linear_115_10347" x1="19.6867" y1="17.633" x2="18.8127" y2="24.2179" gradientUnits="userSpaceOnUse">
<stop stop-color="white"/>
<stop offset="1" stop-opacity="0"/>
</linearGradient>
<linearGradient id="paint5_linear_115_10347" x1="15.9927" y1="7.99198" x2="13.5305" y2="16.5133" gradientUnits="userSpaceOnUse">
<stop stop-opacity="0"/>
<stop offset="1" stop-color="white"/>
</linearGradient>
</defs>
</svg>
